<svg aria-hidden="true" style="position: absolute; width: 0; height: 0; overflow: hidden;" version="1.1" xmlns="http://www.w3.org/2000/svg" xmlns:xlink="http://www.w3.org/1999/xlink">
<defs>

<symbol id="arrow" viewBox="0 0 32 32">
<path d="M17.82 30.544v-22.124l10.16 10.16 2.564-2.58-14.544-14.544-14.544 14.544 2.56 2.56 10.164-10.14v22.124h3.64z"></path>
</symbol>

<symbol id="bracket" viewBox="0 0 33 32">
<path fill="#fff" style="fill: var(--color1, #fff)" d="M8.136 31.513c-1.391 0-2.689-0.533-3.896-1.6-1.159-1.113-2.087-2.55-2.783-4.313-0.617-1.644-0.974-3.544-0.974-5.528 0-0.038 0-0.075 0-0.113l-0 0.006c0-3.061 0.534-5.937 1.6-8.626 1.113-2.737 2.458-5.032 4.035-6.887 1.578-1.902 3.085-3.246 4.522-4.035h0.070l2.435 2.226v0.974c-1.159 1.067-2.248 2.598-3.27 4.591-1.020 1.948-1.53 4.359-1.53 7.235 0 1.485 0.209 2.689 0.626 3.617s1.043 1.948 1.878 3.061c0.696 0.881 1.206 1.646 1.53 2.296 0.326 0.65 0.487 1.437 0.487 2.365 0 1.391-0.463 2.528-1.391 3.409-0.881 0.881-1.994 1.322-3.339 1.322zM27.475 31.513c-1.391 0-2.666-0.533-3.826-1.6-1.159-1.113-2.087-2.55-2.783-4.313-0.617-1.644-0.974-3.544-0.974-5.528 0-0.038 0-0.075 0-0.113l-0 0.006c0-3.061 0.534-5.937 1.6-8.626 1.113-2.737 2.458-5.055 4.035-6.957 1.578-1.902 3.085-3.224 4.522-3.965h0.070l2.365 2.226v0.974c-1.159 1.067-2.248 2.598-3.27 4.591-1.020 1.948-1.53 4.359-1.53 7.235 0 1.485 0.209 2.689 0.626 3.617s1.043 1.948 1.878 3.061c0.696 0.881 1.206 1.646 1.53 2.296 0.326 0.65 0.487 1.437 0.487 2.365 0 1.391-0.463 2.528-1.391 3.409-0.881 0.881-1.994 1.322-3.339 1.322z"></path>
</symbol>

<symbol id="burger" viewBox="0 0 48 32">
<path fill="#696969" style="fill: var(--color2, #696969)" d="M0 32h48v-5.334h-48v5.334zM0 18.666h48v-5.332h-48v5.332zM0 0v5.334h48v-5.334h-48z"></path>
</symbol>

<symbol id="phone" viewBox="0 0 32 32">
<path fill="#fff" style="fill: var(--color1, #fff)" d="M22.111 16.778c-0.062 0.094-0.062 0.188-0.094 0.311-0.001 0.016-0.002 0.034-0.002 0.052 0 0.393 0.299 0.717 0.683 0.755l0.003 0c0.016 0.001 0.034 0.002 0.053 0.002 0.393 0 0.717-0.299 0.755-0.683l0-0.003c0-0.093 0-0.186 0.031-0.342v-0.342c-0.003-0.936-0.162-1.833-0.452-2.67l0.017 0.058c-0.373-1.088-1.026-2.052-1.804-2.861-0.939-0.937-2.113-1.639-3.427-2.008l-0.055-0.013c-0.587-0.154-1.262-0.244-1.957-0.248h-0.003c-0.217 0-0.435 0-0.684 0.031l-0.653 0.094c-0.404 0.062-0.684 0.466-0.59 0.839 0.062 0.405 0.466 0.684 0.839 0.591 0.188-0.031 0.342-0.062 0.53-0.062h0.093c0.156 0 0.311-0.031 0.467-0.031 1.71 0 3.296 0.684 4.416 1.834 1.116 1.116 1.814 2.652 1.835 4.35l0 0.004v0.342z"></path>
<path fill="#fff" style="fill: var(--color1, #fff)" d="M26.216 17.462c-0.001 0.016-0.002 0.034-0.002 0.053 0 0.393 0.299 0.717 0.683 0.755l0.003 0c0.016 0.001 0.034 0.002 0.053 0.002 0.393 0 0.717-0.299 0.755-0.683l0-0.003c0.031-0.342 0.031-0.684 0.031-1.026 0-0.684-0.062-1.337-0.154-1.991-0.405-2.488-1.618-4.727-3.328-6.438-1.96-1.959-4.572-3.234-7.464-3.452-0.311-0.031-0.653-0.031-0.964-0.031-0.342 0-0.684 0-1.026 0.031s-0.684 0.062-1.026 0.124c-0.405 0.063-0.684 0.467-0.591 0.84 0.063 0.405 0.467 0.684 0.84 0.591 0.218-0.031 0.405-0.062 0.622-0.094 0.094 0 0.188-0.031 0.28-0.031 0.31-0.031 0.621-0.031 0.902-0.031 1.057 0 2.052 0.154 3.017 0.436 1.723 0.52 3.198 1.422 4.385 2.612l0 0c0.977 0.979 1.765 2.147 2.305 3.444l0.026 0.071c0.468 1.141 0.742 2.466 0.747 3.853v0.313c-0.057 0.195-0.091 0.42-0.094 0.652l-0 0.002z"></path>
<path fill="#fff" style="fill: var(--color1, #fff)" d="M27.273 5.146c-2.925-2.939-6.973-4.758-11.446-4.758-0.011 0-0.021 0-0.032 0h0.002c-0.466 0-0.932 0.032-1.398 0.063-0.522 0.036-1.002 0.102-1.47 0.199l0.070-0.012c-0.404 0.062-0.684 0.467-0.59 0.839 0.062 0.405 0.467 0.684 0.839 0.591 0.218-0.031 0.405-0.062 0.622-0.093 0.218-0.031 0.436-0.063 0.653-0.063 0.436-0.031 0.84-0.062 1.276-0.062 4.043 0 7.713 1.649 10.387 4.292 2.652 2.65 4.292 6.311 4.292 10.356 0 0.010 0 0.021-0 0.031v-0.002 0.684c0 0.188-0.032 0.374-0.032 0.591-0.001 0.016-0.002 0.034-0.002 0.053 0 0.393 0.299 0.717 0.683 0.755l0.003 0c0.016 0.001 0.034 0.002 0.053 0.002 0.393 0 0.717-0.299 0.755-0.683l0-0.003c0.033-0.398 0.055-0.874 0.062-1.354l0-0.014c0-4.447-1.803-8.49-4.727-11.414zM30.849 23.992l-5.504-2.954c-1.835-0.995-1.898-0.342-3.826 1.71-0.466 0.498-1.336 1.804-2.364 1.556-2.145-0.53-6.157-3.67-7.463-5.101-0.622-0.684-3.297-3.949-3.328-5.006-0.062-1.618 3.482-2.425 2.333-5.505l-2.457-5.503c-2.301-5.288-8.739 3.171-8.21 7.121 1.368 9.734 18.441 25.47 27.957 20.276 2.115-1.181 4.977-5.319 2.861-6.593z"></path>
</symbol>
</defs>
</svg>
